<svg aria-hidden="true" style="width:0;height:0;position:absolute;overflow:hidden" xmlns="http://www.w3.org/2000/svg"><defs><symbol id="icon-book_open" viewBox="0 0 36 32"><path fill="#28a745" style="fill:var(--color1,#28a745)" d="M32.891 2.392c-3.324.189-9.931.877-14.01 3.378a.933.933 0 0 0-.441.8v22.11c0 .702.766 1.145 1.412.82 4.196-2.116 10.265-2.693 13.266-2.851 1.025-.054 1.821-.877 1.821-1.863V4.257c.001-1.076-.931-1.929-2.048-1.865zM16.058 5.77C11.98 3.269 5.373 2.582 2.049 2.392.932 2.329 0 3.181 0 4.257v20.529c0 .987.796 1.809 1.821 1.863 3.002.158 9.074.736 13.271 2.853.644.325 1.408-.118 1.408-.818V6.559a.915.915 0 0 0-.441-.789z"/></symbol><symbol id="icon-linkedin" viewBox="0 0 32 32"><path d="M31.992 32H32V20.262c0-5.741-1.237-10.163-7.947-10.163-3.227 0-5.392 1.77-6.277 3.45h-.093v-2.914h-6.365v21.363h6.627V21.42c0-2.786.528-5.48 3.978-5.48 3.398 0 3.448 3.179 3.448 5.658V32h6.621zM.528 10.635h6.635V32H.528V10.635zM3.843 0A3.843 3.843 0 0 0 0 3.843c0 2.12 1.722 3.878 3.843 3.878 2.12 0 3.842-1.757 3.842-3.878S5.965.002 3.844 0z"/></symbol><symbol id="icon-twitter" viewBox="0 0 32 32"><path d="M32 6.078c-1.1.493-2.376.857-3.713 1.028l-.068.007a6.556 6.556 0 0 0 2.873-3.579l.013-.046a12.88 12.88 0 0 1-4.076 1.573l-.084.014A6.558 6.558 0 0 0 15.6 9.557v.004c0 .52.043 1.021.152 1.496-5.454-.266-10.28-2.88-13.522-6.861a6.524 6.524 0 0 0-.902 3.313v.001a6.57 6.57 0 0 0 2.914 5.451 6.453 6.453 0 0 1-2.994-.823l.033.017v.072a6.592 6.592 0 0 0 5.213 6.44l.043.008a6.403 6.403 0 0 1-1.662.215h-.061.003c-.419 0-.843-.024-1.242-.112.85 2.598 3.261 4.509 6.13 4.57a13.093 13.093 0 0 1-8.122 2.8H1.57h.001-.062c-.531 0-1.055-.034-1.569-.099l.061.006c2.826 1.846 6.287 2.944 10.004 2.944h.063-.003c12.072 0 18.672-10 18.672-18.669 0-.288-.01-.57-.024-.848a13.203 13.203 0 0 0 3.258-3.355l.03-.047z"/></symbol><symbol id="icon-youtube" viewBox="0 0 32 32"><path d="M12.781 20.137v-8.979c3.188 1.5 5.656 2.949 8.576 4.511-2.408 1.336-5.389 2.834-8.576 4.468zM30.546 6.693c-.55-.724-1.487-1.288-2.485-1.474-2.933-.557-21.227-.558-24.158 0-.8.15-1.512.512-2.124 1.075C-.8 8.687.008 21.523.63 23.602c.261.9.599 1.549 1.025 1.975.548.563 1.299.951 2.161 1.125 2.415.499 14.854.779 24.195.075a4.184 4.184 0 0 0 2.223-1.138c2.384-2.384 2.222-15.94.312-18.947z"/></symbol><symbol id="icon-facebook" viewBox="0 0 32 32"><path d="M16 2.72c-7.333 0-13.333 5.987-13.333 13.36 0 6.667 4.88 12.2 11.253 13.2v-9.333h-3.387V16.08h3.387v-2.947c0-3.347 1.987-5.187 5.04-5.187 1.453 0 2.973.253 2.973.253v3.293h-1.68c-1.653 0-2.173 1.027-2.173 2.08v2.507h3.707l-.6 3.867H18.08v9.333a13.332 13.332 0 0 0 11.254-13.2c0-7.373-6-13.36-13.333-13.36z"/></symbol></defs></svg>