<svg aria-hidden="true" style="position: absolute; width: 0; height: 0; overflow: hidden;" version="1.1"
    xmlns="http://www.w3.org/2000/svg" xmlns:xlink="http://www.w3.org/1999/xlink">
    <defs>
        <symbol id="icon-book_open" viewBox="0 0 36 32">
            <path fill="#28a745" style="fill: var(--color1, #28a745)"
                d="M32.891 2.392c-3.324 0.189-9.931 0.877-14.010 3.378-0.282 0.173-0.441 0.479-0.441 0.8v22.11c0 0.702 0.766 1.145 1.412 0.82 4.196-2.116 10.265-2.693 13.266-2.851 1.025-0.054 1.821-0.877 1.821-1.863v-20.529c0.001-1.076-0.931-1.929-2.048-1.865zM16.058 5.77c-4.078-2.501-10.685-3.188-14.009-3.378-1.117-0.063-2.049 0.789-2.049 1.865v20.529c0 0.987 0.796 1.809 1.821 1.863 3.002 0.158 9.074 0.736 13.271 2.853 0.644 0.325 1.408-0.118 1.408-0.818v-22.125c0-0.321-0.159-0.616-0.441-0.789z">
            </path>
        </symbol>
        <symbol id="icon-linkedin" viewBox="0 0 32 32">
            <path
                d="M31.992 32h0.008v-11.738c0-5.741-1.237-10.163-7.947-10.163-3.227 0-5.392 1.77-6.277 3.45h-0.093v-2.914h-6.365v21.363h6.627v-10.578c0-2.786 0.528-5.48 3.978-5.48 3.398 0 3.448 3.179 3.448 5.658v10.402h6.621zM0.528 10.635h6.635v21.365h-6.635v-21.365zM3.843 0c-2.123 0-3.843 1.721-3.843 3.843v0c0 2.12 1.722 3.878 3.843 3.878 2.12 0 3.842-1.757 3.842-3.878s-1.72-3.841-3.841-3.843h-0z">
            </path>
        </symbol>
        <symbol id="icon-twitter" viewBox="0 0 32 32">
            <path
                d="M32 6.078c-1.1 0.493-2.376 0.857-3.713 1.028l-0.068 0.007c1.36-0.817 2.382-2.078 2.873-3.579l0.013-0.046c-1.197 0.722-2.591 1.273-4.076 1.573l-0.084 0.014c-1.2-1.279-2.9-2.076-4.787-2.076-3.622 0-6.558 2.936-6.558 6.558 0 0.001 0 0.003 0 0.004v-0c0 0.52 0.043 1.021 0.152 1.496-5.454-0.266-10.28-2.88-13.522-6.861-0.564 0.949-0.899 2.092-0.902 3.313v0.001c0 2.272 1.171 4.286 2.914 5.451-1.091-0.030-2.107-0.325-2.994-0.823l0.033 0.017v0.072c0.003 3.165 2.236 5.807 5.213 6.44l0.043 0.008c-0.499 0.136-1.071 0.215-1.662 0.215-0.020 0-0.041-0-0.061-0l0.003 0c-0.419 0-0.843-0.024-1.242-0.112 0.85 2.598 3.261 4.509 6.13 4.57-2.215 1.746-5.045 2.8-8.122 2.8-0.004 0-0.008 0-0.013 0h0.001c-0.018 0-0.040 0-0.062 0-0.531 0-1.055-0.034-1.569-0.099l0.061 0.006c2.826 1.846 6.287 2.944 10.004 2.944 0.021 0 0.042-0 0.063-0h-0.003c12.072 0 18.672-10 18.672-18.669 0-0.288-0.010-0.57-0.024-0.848 1.299-0.936 2.39-2.064 3.258-3.355l0.030-0.047z">
            </path>
        </symbol>
        <symbol id="icon-youtube" viewBox="0 0 32 32">
            <path
                d="M12.781 20.137v-8.979c3.188 1.5 5.656 2.949 8.576 4.511-2.408 1.336-5.389 2.834-8.576 4.468zM30.546 6.693c-0.55-0.724-1.487-1.288-2.485-1.474-2.933-0.557-21.227-0.558-24.158 0-0.8 0.15-1.512 0.512-2.124 1.075-2.579 2.393-1.771 15.229-1.149 17.308 0.261 0.9 0.599 1.549 1.025 1.975 0.548 0.563 1.299 0.951 2.161 1.125 2.415 0.499 14.854 0.779 24.195 0.075 0.861-0.15 1.622-0.55 2.223-1.138 2.384-2.384 2.222-15.94 0.312-18.947z">
            </path>
        </symbol>
        <symbol id="icon-facebook" viewBox="0 0 32 32">
            <path
                d="M16 2.72c-7.333 0-13.333 5.987-13.333 13.36 0 6.667 4.88 12.2 11.253 13.2v-9.333h-3.387v-3.867h3.387v-2.947c0-3.347 1.987-5.187 5.040-5.187 1.453 0 2.973 0.253 2.973 0.253v3.293h-1.68c-1.653 0-2.173 1.027-2.173 2.080v2.507h3.707l-0.6 3.867h-3.107v9.333c3.142-0.496 6.003-2.099 8.067-4.52s3.194-5.499 3.187-8.68c0-7.373-6-13.36-13.333-13.36z">
            </path>
        </symbol>
    </defs>
</svg>